<svg width="31" height="29" viewBox="0 0 31 29" fill="none" xmlns="http://www.w3.org/2000/svg">
<path d="M5.70117 28.252C2.46387 28.252 0.735352 26.5527 0.735352 23.3447V5.54688C0.735352 2.33887 2.46387 0.625 5.70117 0.625H25.96C29.2119 0.625 30.9258 2.33887 30.9258 5.54688V23.3447C30.9258 26.5527 29.2119 28.252 25.96 28.252H5.70117ZM5.80371 25H25.8428C27.0146 25 27.6592 24.4141 27.6592 23.1689V9.86816C27.6592 8.6377 27.0146 8.05176 25.8428 8.05176H5.80371C4.63184 8.05176 4.00195 8.6377 4.00195 9.86816V23.1689C4.00195 24.4141 4.63184 25 5.80371 25ZM13.04 12.9883C12.5127 12.9883 12.3369 12.8271 12.3369 12.2998V11.4355C12.3369 10.9082 12.5127 10.7471 13.04 10.7471H13.9043C14.4316 10.7471 14.6074 10.9082 14.6074 11.4355V12.2998C14.6074 12.8271 14.4316 12.9883 13.9043 12.9883H13.04ZM17.7715 12.9883C17.2441 12.9883 17.0684 12.8271 17.0684 12.2998V11.4355C17.0684 10.9082 17.2441 10.7471 17.7715 10.7471H18.6357C19.1631 10.7471 19.3389 10.9082 19.3389 11.4355V12.2998C19.3389 12.8271 19.1631 12.9883 18.6357 12.9883H17.7715ZM22.5029 12.9883C21.9756 12.9883 21.7998 12.8271 21.7998 12.2998V11.4355C21.7998 10.9082 21.9756 10.7471 22.5029 10.7471H23.3672C23.8945 10.7471 24.085 10.9082 24.085 11.4355V12.2998C24.085 12.8271 23.8945 12.9883 23.3672 12.9883H22.5029ZM8.30859 17.6465C7.78125 17.6465 7.59082 17.4854 7.59082 16.958V16.0938C7.59082 15.5664 7.78125 15.4053 8.30859 15.4053H9.17285C9.7002 15.4053 9.87598 15.5664 9.87598 16.0938V16.958C9.87598 17.4854 9.7002 17.6465 9.17285 17.6465H8.30859ZM13.04 17.6465C12.5127 17.6465 12.3369 17.4854 12.3369 16.958V16.0938C12.3369 15.5664 12.5127 15.4053 13.04 15.4053H13.9043C14.4316 15.4053 14.6074 15.5664 14.6074 16.0938V16.958C14.6074 17.4854 14.4316 17.6465 13.9043 17.6465H13.04ZM17.7715 17.6465C17.2441 17.6465 17.0684 17.4854 17.0684 16.958V16.0938C17.0684 15.5664 17.2441 15.4053 17.7715 15.4053H18.6357C19.1631 15.4053 19.3389 15.5664 19.3389 16.0938V16.958C19.3389 17.4854 19.1631 17.6465 18.6357 17.6465H17.7715ZM22.5029 17.6465C21.9756 17.6465 21.7998 17.4854 21.7998 16.958V16.0938C21.7998 15.5664 21.9756 15.4053 22.5029 15.4053H23.3672C23.8945 15.4053 24.085 15.5664 24.085 16.0938V16.958C24.085 17.4854 23.8945 17.6465 23.3672 17.6465H22.5029ZM8.30859 22.3047C7.78125 22.3047 7.59082 22.1436 7.59082 21.6162V20.752C7.59082 20.2246 7.78125 20.0635 8.30859 20.0635H9.17285C9.7002 20.0635 9.87598 20.2246 9.87598 20.752V21.6162C9.87598 22.1436 9.7002 22.3047 9.17285 22.3047H8.30859ZM13.04 22.3047C12.5127 22.3047 12.3369 22.1436 12.3369 21.6162V20.752C12.3369 20.2246 12.5127 20.0635 13.04 20.0635H13.9043C14.4316 20.0635 14.6074 20.2246 14.6074 20.752V21.6162C14.6074 22.1436 14.4316 22.3047 13.9043 22.3047H13.04ZM17.7715 22.3047C17.2441 22.3047 17.0684 22.1436 17.0684 21.6162V20.752C17.0684 20.2246 17.2441 20.0635 17.7715 20.0635H18.6357C19.1631 20.0635 19.3389 20.2246 19.3389 20.752V21.6162C19.3389 22.1436 19.1631 22.3047 18.6357 22.3047H17.7715Z" fill="#363B57"/>
</svg>
