<svg width="36" height="32" viewBox="0 0 36 32" fill="none" xmlns="http://www.w3.org/2000/svg">
<path d="M0.735352 15.2705C0.735352 14.9336 0.881836 14.582 1.2041 14.3184L16.4678 1.50098C17.5664 0.578125 18.9141 0.578125 19.998 1.50098L27.4688 7.77051V5.00195C27.4688 4.35742 27.8936 3.94727 28.5234 3.94727H30.0908C30.7354 3.94727 31.1455 4.35742 31.1455 5.00195V10.8613L35.2471 14.3184C35.5547 14.582 35.7012 14.875 35.7012 15.3145C35.7012 16.0176 35.1445 16.4424 34.4561 16.4424C34.0459 16.4424 33.709 16.2227 33.416 15.9736L18.7529 3.66895C18.4307 3.37598 18.0352 3.37598 17.7129 3.66895L3.0498 15.9736C2.74219 16.2227 2.40527 16.4424 1.99512 16.4424C1.2041 16.4424 0.735352 15.8711 0.735352 15.2705ZM5.30566 28.3369V16.7354L17.3467 6.64258C17.8887 6.18848 18.5479 6.17383 19.1045 6.64258L31.1455 16.7354V28.3369C31.1455 30.373 29.9297 31.5742 27.8643 31.5742H8.60156C6.53613 31.5742 5.30566 30.373 5.30566 28.3369ZM21.9902 29.2158V19.5332C21.9902 18.8594 21.5508 18.4199 20.877 18.4199H15.5596C14.8857 18.4199 14.4316 18.8594 14.4316 19.5332V29.2158H21.9902Z" fill="#363B57"/>
</svg>
