<svg width="31" height="23" viewBox="0 0 31 23" fill="none" xmlns="http://www.w3.org/2000/svg">
<path d="M2.80078 4.50977C1.6582 4.50977 0.735352 3.58691 0.735352 2.44434C0.735352 1.31641 1.6582 0.393555 2.80078 0.393555C3.92871 0.393555 4.85156 1.31641 4.85156 2.44434C4.85156 3.58691 3.92871 4.50977 2.80078 4.50977ZM9.6416 3.83594C8.86523 3.83594 8.25 3.2207 8.25 2.44434C8.25 1.66797 8.86523 1.05273 9.6416 1.05273H29.5488C30.3252 1.05273 30.9404 1.66797 30.9404 2.44434C30.9404 3.2207 30.3252 3.83594 29.5488 3.83594H9.6416ZM2.80078 13.5039C1.6582 13.5039 0.735352 12.5811 0.735352 11.4385C0.735352 10.3105 1.6582 9.3877 2.80078 9.3877C3.92871 9.3877 4.85156 10.3105 4.85156 11.4385C4.85156 12.5811 3.92871 13.5039 2.80078 13.5039ZM9.6416 12.8301C8.86523 12.8301 8.25 12.2148 8.25 11.4385C8.25 10.6621 8.86523 10.0469 9.6416 10.0469H29.5488C30.3252 10.0469 30.9404 10.6621 30.9404 11.4385C30.9404 12.2148 30.3252 12.8301 29.5488 12.8301H9.6416ZM2.80078 22.498C1.6582 22.498 0.735352 21.5752 0.735352 20.4326C0.735352 19.3047 1.6582 18.3818 2.80078 18.3818C3.92871 18.3818 4.85156 19.3047 4.85156 20.4326C4.85156 21.5752 3.92871 22.498 2.80078 22.498ZM9.6416 21.8242C8.86523 21.8242 8.25 21.209 8.25 20.4326C8.25 19.6562 8.86523 19.041 9.6416 19.041H29.5488C30.3252 19.041 30.9404 19.6562 30.9404 20.4326C30.9404 21.209 30.3252 21.8242 29.5488 21.8242H9.6416Z" fill="#363B57"/>
</svg>
