<svg width="393" height="123" viewBox="0 0 393 123" fill="none" xmlns="http://www.w3.org/2000/svg">
<rect width="393" height="123" fill="#363B57"/>
<path d="M354.004 96.7991C347.974 95.7358 345.468 92.2299 346.522 86.2576L352.733 51.0296C353.786 45.0573 357.34 42.6197 363.37 43.683L402.781 50.6323C408.811 51.6955 411.283 55.2252 410.235 61.1687L404.023 96.3967C402.975 102.34 399.445 104.812 393.415 103.748L354.004 96.7991ZM354.39 92.0777L394.61 99.1694C397.177 99.6222 398.859 98.5205 399.332 95.8373L404.13 68.6301C404.598 65.9757 403.399 64.3365 400.831 63.8837L360.612 56.7919C358.044 56.3391 356.386 57.4747 355.918 60.1291L351.121 87.3364C350.648 90.0196 351.822 91.6249 354.39 92.0777ZM373.298 69.7086C372.288 69.5306 371.993 69.181 372.171 68.1712L372.471 66.469C372.649 65.4591 373.051 65.2028 374.061 65.3809L375.763 65.681C376.773 65.8591 377.035 66.2324 376.857 67.2422L376.556 68.9445C376.378 69.9543 376.01 70.1869 375 70.0088L373.298 69.7086ZM382.877 71.3976C381.867 71.2196 381.572 70.87 381.75 69.8602L382.05 68.158C382.228 67.1481 382.63 66.8918 383.64 67.0699L385.342 67.37C386.352 67.5481 386.642 67.9265 386.464 68.9363L386.164 70.6386C385.986 71.6484 385.589 71.8759 384.579 71.6978L382.877 71.3976ZM392.456 73.0866C391.446 72.9086 391.179 72.5641 391.357 71.5543L391.658 69.852C391.836 68.8422 392.209 68.5808 393.219 68.7589L394.921 69.059C395.931 69.2371 396.221 69.6155 396.043 70.6253L395.743 72.3276C395.565 73.3374 395.168 73.5649 394.158 73.3868L392.456 73.0866ZM362.056 77.4542C361.017 77.271 360.751 76.9266 360.929 75.9167L361.229 74.2145C361.407 73.2047 361.775 72.9721 362.814 73.1553L364.487 73.4503C365.526 73.6335 365.792 73.978 365.614 74.9878L365.314 76.69C365.136 77.6998 364.768 77.9324 363.729 77.7492L362.056 77.4542ZM371.635 79.1432C370.625 78.9651 370.329 78.6156 370.507 77.6057L370.808 75.9035C370.986 74.8937 371.383 74.6662 372.393 74.8443L374.095 75.1444C375.105 75.3225 375.371 75.667 375.193 76.6768L374.893 78.379C374.715 79.3888 374.347 79.6214 373.337 79.4433L371.635 79.1432ZM381.213 80.8322C380.204 80.6541 379.908 80.3046 380.086 79.2947L380.386 77.5925C380.564 76.5827 380.962 76.3552 381.971 76.5333L383.674 76.8334C384.683 77.0115 384.979 77.361 384.801 78.3709L384.501 80.0731C384.323 81.0829 383.925 81.3104 382.916 81.1323L381.213 80.8322ZM390.792 82.5212C389.782 82.3431 389.516 81.9986 389.694 80.9888L389.994 79.2866C390.172 78.2768 390.54 78.0442 391.55 78.2223L393.252 78.5224C394.262 78.7005 394.558 79.05 394.38 80.0599L394.079 81.7621C393.901 82.7719 393.504 82.9994 392.494 82.8213L390.792 82.5212ZM360.387 86.9176C359.348 86.7344 359.087 86.3611 359.265 85.3513L359.565 83.649C359.743 82.6392 360.112 82.4067 361.15 82.5898L362.824 82.8849C363.862 83.068 364.129 83.4125 363.951 84.4223L363.651 86.1246C363.473 87.1344 363.099 87.3958 362.061 87.2126L360.387 86.9176ZM369.966 88.6066C368.956 88.4285 368.666 88.0501 368.844 87.0403L369.144 85.338C369.322 84.3282 369.719 84.1007 370.729 84.2788L372.431 84.579C373.441 84.757 373.708 85.1015 373.53 86.1113L373.229 87.8136C373.051 88.8234 372.678 89.0848 371.668 88.9067L369.966 88.6066ZM379.545 90.2956C378.535 90.1175 378.245 89.7391 378.423 88.7293L378.723 87.027C378.901 86.0172 379.298 85.7897 380.308 85.9678L382.01 86.268C383.02 86.446 383.315 86.7956 383.137 87.8054L382.837 89.5076C382.659 90.5175 382.257 90.7738 381.247 90.5957L379.545 90.2956Z" fill="url(#paint0_linear_119_935)"/>
<defs>
<linearGradient id="paint0_linear_119_935" x1="400.5" y1="74" x2="336.005" y2="81.046" gradientUnits="userSpaceOnUse">
<stop stop-color="white" stop-opacity="0.34"/>
<stop offset="1" stop-color="white" stop-opacity="0.05"/>
</linearGradient>
</defs>
</svg>
